# xmcd CD database file
# Copyright (C) 1993-1998 Ti Kan
# 
# Track frame offsets:
#     182
#     10297
#     24242
#     58545
#     86085
#     107705
#     136052
#     176867
#     216240
#     230642
#     249437
#     283792
#     319170
# 
# Disc length: 4675 seconds
# 
# Revision: 2
# Processed by: cddbd v1.4PL0 Copyright (c) Steve Scherf et al.
# Submitted via: Gronk 1.4
# 
DISCID=b512410d
DTITLE=Toon Hermans - Toon Hermans 2 [CD2]
DYEAR=1900
DGENRE=blues
TTITLE0=Ik ben de muzeman
TTITLE1='N eik is een eik
TTITLE2=Gezelligheid in de Aristoteles
TTITLE3=De piano van Bonnemama
TTITLE4=Versjes
TTITLE5=Tango folklore
TTITLE6=C'est l'amour
TTITLE7=Tennis
TTITLE8=Engel Gabri l
TTITLE9=De stoel vam me zuster
TTITLE10=Op de pier van Scheveningen
TTITLE11=Crosstalk met Phylis Lane
TTITLE12=De slinger van de koffergrammofoon
EXTD=
EXTT0=
EXTT1=
EXTT2=
EXTT3=
EXTT4=
EXTT5=
EXTT6=
EXTT7=
EXTT8=
EXTT9=
EXTT10=
EXTT11=
EXTT12=
PLAYORDER=
